<svg width="823" height="581" viewBox="0 0 823 581" fill="none" xmlns="http://www.w3.org/2000/svg">
<g clip-path="url(#clip0_322_327)">
<path d="M623.476 289.042C623.484 303.596 621.789 318.102 618.426 332.262C598.936 414.142 525.315 475.042 437.476 475.042C334.756 475.042 251.476 391.762 251.476 289.042C251.466 255.163 260.712 221.924 278.214 192.915C295.716 163.907 320.81 140.23 350.786 124.442C350.795 124.442 350.806 124.432 350.815 124.432C355.855 121.762 361.035 119.328 366.355 117.132C395.781 105.015 427.811 100.605 459.415 104.322C462.125 104.642 464.826 105.022 467.496 105.452C471.846 106.162 476.139 107.019 480.375 108.022C481.445 108.262 482.505 108.522 483.556 108.802C483.766 108.852 483.966 108.912 484.176 108.962C484.386 109.012 484.585 109.062 484.786 109.122H484.795C485.195 109.222 485.596 109.322 485.996 109.432C486.976 109.702 487.956 109.972 488.936 110.262C491.966 111.122 494.963 112.066 497.926 113.092C498.395 113.252 498.855 113.412 499.326 113.572C499.565 113.662 499.795 113.742 500.036 113.832C500.286 113.912 500.525 114.002 500.775 114.092C507.431 116.498 513.941 119.286 520.275 122.442L510.525 119.302C541.716 135.292 568.716 163.522 591.246 203.632C591.414 202.632 591.882 201.707 592.587 200.979C593.293 200.251 594.203 199.754 595.197 199.555C596.191 199.355 597.222 199.462 598.154 199.862C599.086 200.261 599.875 200.935 600.415 201.792C600.55 202.006 600.667 202.23 600.766 202.462C601.027 203.065 601.168 203.713 601.179 204.37C601.19 205.027 601.071 205.68 600.83 206.291C600.588 206.902 600.229 207.46 599.771 207.932C599.314 208.404 598.769 208.781 598.165 209.042C598.131 209.06 598.094 209.073 598.056 209.082L614.076 250.732C615.222 250.692 616.363 250.907 617.415 251.362C617.678 249.973 618.14 248.629 618.786 247.372C619.105 248.752 619.406 250.142 619.695 251.542C619.795 252.062 619.906 252.572 619.996 253.092V253.102C620.545 255.852 621.025 258.629 621.436 261.432C621.476 261.662 621.506 261.882 621.545 262.112V262.122C621.706 263.222 621.855 264.332 621.996 265.442C622.735 271.312 623.199 277.265 623.386 283.302C623.445 285.212 623.476 287.122 623.476 289.042Z" fill="#F2F2F2"/>
<path d="M614.189 259.712C615.812 301.231 617.436 342.818 615.563 384.357C613.703 425.609 607.834 466.566 602.692 507.5L593.955 577.06H596.955C596.964 570.181 590.405 564.127 583.484 565.191C576.867 566.209 572.394 573.28 573.852 579.695L576.594 578.539C572.035 569.343 565.015 557.455 552.917 558.897C547.231 559.574 543.568 563.861 539.419 567.32C534.951 570.919 529.592 573.241 523.911 574.041C518.23 574.84 512.439 574.087 507.151 571.862C505.398 571.101 503.869 573.684 505.637 574.453C510.318 576.467 515.382 577.439 520.476 577.301C525.571 577.163 530.574 575.917 535.139 573.651C537.429 572.502 539.578 571.089 541.54 569.441C543.618 567.709 545.487 565.707 547.706 564.148C552.534 560.758 558.203 561.412 562.952 564.637C568.281 568.256 571.23 574.458 574.004 580.053C574.786 581.631 577.109 580.495 576.745 578.898C576.292 576.532 576.782 574.082 578.113 572.073C579.443 570.065 581.507 568.657 583.862 568.151C589.026 567.276 593.962 571.995 593.955 577.06C593.952 579.046 596.721 578.919 596.955 577.06C602.139 535.787 607.514 494.533 612.461 453.231C614.899 432.868 617.036 412.46 618.179 391.979C619.336 371.235 619.564 350.45 619.303 329.68C619.011 306.347 618.1 283.028 617.189 259.712C617.114 257.788 614.114 257.779 614.189 259.712V259.712Z" fill="#CCCCCC"/>
<path d="M754.376 299.273C736.74 312.088 718.358 323.842 699.326 334.473C694.126 337.333 689.025 339.963 684.226 342.193C676.786 345.653 670.056 348.163 664.795 349.093L664.786 349.103C664.016 349.243 663.266 349.343 662.556 349.413C656.025 350.043 650.676 346.123 646.315 339.683C640.235 330.723 636.065 316.883 633.256 303.603C632.695 300.983 632.195 298.393 631.746 295.863C629.646 284.173 628.596 273.833 628.166 268.953C626.184 268.381 624.34 267.412 622.746 266.103V266.092C622.484 265.89 622.234 265.673 621.996 265.443C621.451 264.935 620.946 264.387 620.485 263.802C618.309 261.104 617.127 257.739 617.136 254.273C617.135 251.875 617.701 249.511 618.786 247.373V247.363C619.73 245.495 621.047 243.842 622.656 242.504C624.265 241.166 626.131 240.173 628.139 239.586C630.147 238.998 632.255 238.829 634.331 239.089C636.407 239.349 638.408 240.032 640.209 241.096C642.011 242.16 643.575 243.582 644.805 245.275C646.035 246.967 646.904 248.894 647.359 250.937C647.815 252.979 647.846 255.093 647.451 257.147C647.057 259.202 646.245 261.154 645.065 262.883L650.456 276.043L650.466 276.052L666.445 315.033V315.043L666.616 315.453L725.646 280.163L733.886 275.233L735.476 274.283C738.641 271.844 742.618 270.706 746.594 271.102C750.569 271.498 754.244 273.398 756.866 276.413H756.876C758.285 278.046 759.342 279.952 759.982 282.012C760.623 284.072 760.832 286.242 760.598 288.387C760.363 290.531 759.69 292.604 758.619 294.477C757.549 296.35 756.104 297.982 754.376 299.273H754.376Z" fill="#FFB6B6"/>
<path d="M617.355 260.732L615.485 261.432C614.195 257.972 612.882 254.569 611.545 251.222C583.806 181.732 546.686 136.672 501.016 117.033C500.326 116.732 499.636 116.442 498.936 116.162C498.006 115.772 497.065 115.392 496.125 115.042C494.605 114.442 493.065 113.882 491.525 113.352C489.466 112.642 487.402 111.986 485.335 111.382C484.835 111.232 484.326 111.082 483.826 110.952C482.036 110.442 480.256 109.972 478.466 109.562C435.735 99.3323 391.976 109.992 350.815 124.432C350.806 124.432 350.795 124.442 350.786 124.442C338.216 128.852 325.875 133.622 313.895 138.252C269.596 155.372 230.645 170.422 203.496 157.412C202.456 156.922 201.436 156.382 200.436 155.802C199.355 155.172 198.286 154.492 197.246 153.772C197.116 153.682 196.985 153.592 196.866 153.492C195.746 152.692 194.645 151.832 193.576 150.912C191.986 149.544 190.492 148.067 189.105 146.492C188.835 146.192 188.565 145.892 188.306 145.582C188.256 145.512 188.195 145.442 188.145 145.382C186.096 142.908 184.301 140.235 182.786 137.402C173.406 120.002 173.846 97.0022 174.275 74.6023C174.735 50.3621 175.186 27.3123 162.926 13.9021C161.171 11.9677 159.174 10.267 156.985 8.84205C154.801 7.40986 152.455 6.24171 149.996 5.36205C123.625 -4.198 78.2856 14.6121 14.9556 61.4123C12.8555 62.9622 10.7456 64.5422 8.6055 66.1521L7.39551 64.552C9.53565 62.9421 11.6558 61.3523 13.7559 59.802C43.7056 37.6824 69.8755 21.6423 91.6557 12.052C116.556 1.08227 136.426 -1.75757 150.886 3.56225C153.416 4.48233 155.831 5.6903 158.085 7.16235C160.339 8.63531 162.408 10.3744 164.246 12.342C177.206 26.262 176.746 49.842 176.275 74.632C175.875 95.7024 175.456 117.312 183.326 134.002C185.068 137.746 187.294 141.246 189.945 144.412C190.105 144.602 190.275 144.792 190.436 144.982C191.815 146.557 193.302 148.033 194.886 149.402C195.815 150.212 196.775 150.962 197.756 151.672C198.897 152.504 200.082 153.276 201.306 153.982C202.676 154.783 204.092 155.504 205.545 156.142C231.936 167.782 269.985 153.072 313.176 136.382C330.295 129.762 348.116 122.882 366.355 117.132C396.666 107.572 428.136 101.142 459.416 104.322C461.916 104.562 464.426 104.882 466.926 105.272C471.436 105.952 475.936 106.842 480.426 107.972C481.476 108.232 482.516 108.512 483.556 108.802C483.966 108.902 484.366 109.022 484.775 109.142C485.176 109.252 485.585 109.362 485.985 109.482C488.045 110.092 490.116 110.752 492.176 111.462C493.926 112.072 495.676 112.712 497.406 113.382C498.036 113.632 498.676 113.882 499.316 114.152C499.886 114.382 500.466 114.622 501.036 114.862C504.235 116.222 507.406 117.692 510.526 119.302C541.716 135.292 568.716 163.522 591.246 203.632C592.246 205.412 593.246 207.222 594.226 209.062C596.536 213.352 598.792 217.772 600.996 222.322C605.366 231.302 609.536 240.782 613.506 250.762C614.416 253.022 615.309 255.312 616.186 257.632C616.576 258.662 616.966 259.692 617.355 260.732Z" fill="#CCCCCC"/>
<path d="M8.00195 73.3506C12.4202 73.3506 16.002 69.7689 16.002 65.3506C16.002 60.9323 12.4202 57.3506 8.00195 57.3506C3.58367 57.3506 0.00195312 60.9323 0.00195312 65.3506C0.00195312 69.7689 3.58367 73.3506 8.00195 73.3506Z" fill="#00B0FF"/>
<path d="M157.535 16.002C161.953 16.002 165.535 12.4202 165.535 8.00195C165.535 3.58367 161.953 0.00195312 157.535 0.00195312C153.117 0.00195312 149.535 3.58367 149.535 8.00195C149.535 12.4202 153.117 16.002 157.535 16.002Z" fill="#00B0FF"/>
<path d="M154.685 114.564L153.33 116.035L236.968 193.085L238.323 191.614L154.685 114.564Z" fill="#3F3D56"/>
<path d="M154.006 120.299C156.767 120.299 159.006 118.06 159.006 115.299C159.006 112.537 156.767 110.299 154.006 110.299C151.244 110.299 149.006 112.537 149.006 115.299C149.006 118.06 151.244 120.299 154.006 120.299Z" fill="#00B0FF"/>
<path d="M236.426 58.6621L222.946 68.9219L204.496 82.9722C194.931 90.2241 188.55 100.902 186.696 112.762L183.326 134.002L182.786 137.402L182.366 140.062L181.996 142.442L180.886 149.412C180.806 149.897 180.884 150.394 181.108 150.831C181.332 151.269 181.691 151.622 182.131 151.84C182.571 152.058 183.07 152.129 183.553 152.043C184.037 151.956 184.48 151.717 184.817 151.359C184.716 149.288 185.427 147.258 186.798 145.702C188.169 144.146 190.093 143.185 192.161 143.024C192.686 127.382 201.174 120.39 214.036 118.152L214.166 118.002L214.076 118.182C216.133 135.383 210.95 144.28 200.156 146.742L199.886 147.296C199.974 147.463 200.063 147.629 200.139 147.805C200.611 148.886 200.837 150.059 200.802 151.238C200.767 152.418 200.471 153.575 199.935 154.626C199.399 155.677 198.637 156.597 197.704 157.319C196.77 158.04 195.688 158.546 194.536 158.8C194.531 159.009 194.554 159.219 194.606 159.422C194.701 159.767 194.876 160.086 195.116 160.353C195.355 160.619 195.654 160.827 195.987 160.959C196.32 161.091 196.68 161.143 197.037 161.113C197.394 161.082 197.74 160.969 198.046 160.782L200.356 159.352L202.126 158.262L203.496 157.412L205.546 156.142L230.016 141.012C240.041 134.833 247.262 124.989 250.146 113.572L255.946 90.7617L260.126 74.3418L236.426 58.6621Z" fill="#E6E6E6"/>
<path d="M236.329 196.829C239.091 196.829 241.329 194.591 241.329 191.829C241.329 189.068 239.091 186.829 236.329 186.829C233.568 186.829 231.329 189.068 231.329 191.829C231.329 194.591 233.568 196.829 236.329 196.829Z" fill="#00B0FF"/>
<path d="M667.596 330.433L666.446 315.043V315.033L665.866 307.302C664.993 295.334 659.517 284.169 650.586 276.153L650.466 276.052L650.456 276.043L623.016 251.313C622.649 250.971 622.178 250.761 621.679 250.715C621.179 250.67 620.679 250.792 620.256 251.063C620.043 251.19 619.854 251.352 619.696 251.543C619.508 251.767 619.367 252.027 619.28 252.306C620.989 253.416 622.209 255.138 622.689 257.118C623.169 259.098 622.874 261.187 621.864 262.957L622.746 266.093V266.103C631.901 272.939 634.133 283.234 631.156 296.133L631.216 296.333L631.116 296.163C619.355 289.168 612.322 279.956 613.516 266.884C612.46 266.697 611.452 266.299 610.553 265.715C609.654 265.13 608.881 264.37 608.282 263.481C607.683 262.591 607.269 261.59 607.066 260.537C606.862 259.484 606.872 258.4 607.096 257.351C606.886 257.286 606.666 257.253 606.446 257.253C606.243 257.25 606.041 257.277 605.846 257.333C605.361 257.454 604.929 257.732 604.62 258.125C604.31 258.518 604.14 259.003 604.136 259.503L603.296 297.083C603.008 308.854 607.324 320.274 615.326 328.913L618.426 332.262L631.296 346.203L642.786 358.653L664.786 349.103L664.796 349.093L668.856 347.333L667.596 330.433Z" fill="#CCCCCC"/>
<path d="M192.712 156.233C195.895 156.233 198.476 153.653 198.476 150.47C198.476 147.287 195.895 144.707 192.712 144.707C189.529 144.707 186.949 147.287 186.949 150.47C186.949 153.653 189.529 156.233 192.712 156.233Z" fill="#00B0FF"/>
<path d="M215.85 118.593C218.059 118.593 219.85 116.802 219.85 114.593C219.85 112.384 218.059 110.593 215.85 110.593C213.64 110.593 211.85 112.384 211.85 114.593C211.85 116.802 213.64 118.593 215.85 118.593Z" fill="#3F3D56"/>
<path d="M616.666 257.452L616.186 257.632L614.796 258.172L612.056 251.052L601.016 222.362L600.996 222.322L596.056 209.462H596.046L594.466 205.342L596.336 204.622L598.056 209.082L614.076 250.732L616.666 257.452Z" fill="#3F3D56"/>
<path d="M598.165 209.042C598.13 209.06 598.094 209.073 598.056 209.082C597.422 209.344 596.741 209.473 596.056 209.462H596.045C595.419 209.441 594.803 209.306 594.225 209.062C593.047 208.561 592.106 207.627 591.596 206.452C591.205 205.567 591.084 204.586 591.245 203.632C591.414 202.632 591.882 201.707 592.587 200.979C593.293 200.251 594.203 199.754 595.197 199.555C596.191 199.355 597.222 199.463 598.154 199.862C599.086 200.262 599.874 200.935 600.415 201.792C600.55 202.006 600.667 202.23 600.765 202.462C601.027 203.065 601.168 203.713 601.179 204.37C601.19 205.027 601.071 205.68 600.829 206.291C600.588 206.902 600.228 207.46 599.771 207.932C599.314 208.404 598.768 208.781 598.165 209.042V209.042Z" fill="#00B0FF"/>
<path d="M620.926 261.253C620.918 261.283 620.905 261.311 620.888 261.337V261.345C620.674 261.811 620.399 262.247 620.07 262.64C619.452 263.396 618.661 263.994 617.765 264.383C616.771 264.816 615.681 264.981 614.604 264.861V264.853C613.529 264.731 612.506 264.327 611.636 263.682C610.767 263.038 610.084 262.176 609.654 261.183C609.156 260.055 609.013 258.802 609.245 257.59C609.429 256.6 609.853 255.669 610.481 254.881C611.109 254.093 611.921 253.472 612.846 253.072C612.954 253.026 613.07 252.98 613.177 252.941C613.309 252.895 613.44 252.849 613.571 252.81C613.936 252.702 614.31 252.627 614.689 252.586C614.835 252.571 614.982 252.563 615.128 252.563C616.012 252.532 616.892 252.698 617.703 253.049C618.205 253.259 618.676 253.534 619.107 253.866V253.874C619.314 254.029 619.51 254.199 619.693 254.383V254.391C620.228 254.935 620.659 255.573 620.965 256.272C621.308 257.058 621.482 257.908 621.475 258.766C621.469 259.624 621.282 260.472 620.926 261.253V261.253Z" fill="#00B0FF"/>
<path d="M633.161 303.6C635.37 303.6 637.161 301.809 637.161 299.6C637.161 297.39 635.37 295.6 633.161 295.6C630.952 295.6 629.161 297.39 629.161 299.6C629.161 301.809 630.952 303.6 633.161 303.6Z" fill="#3F3D56"/>
<path d="M552.916 130.852L552.306 132.752L547.216 131.112L520.276 122.442L510.526 119.302L501.036 116.252L499.086 115.622L496.336 114.732L485.396 111.212L483.906 110.742L478.976 109.152L467.496 105.452L466.926 105.272L378.945 76.9523L373.566 75.2223L374.176 73.3223L379.266 74.9623L480.826 107.652L484.896 108.962L486.036 109.322L488.936 110.262L497.846 113.122L499.326 113.602L500.746 114.062L547.536 129.122L552.916 130.852Z" fill="#3F3D56"/>
<path d="M501.036 114.862C500.998 114.592 500.91 114.33 500.776 114.092L500.746 114.062C500.465 113.578 500.011 113.217 499.476 113.052C499.419 113.03 499.358 113.016 499.296 113.012H499.294C499.393 114.095 499.27 115.186 498.932 116.22C498.594 117.253 498.049 118.207 497.329 119.022C496.61 119.837 495.731 120.497 494.748 120.96C493.764 121.423 492.697 121.681 491.61 121.717L491.606 121.723C492.14 136.503 487.308 147.32 472.146 150.512L472.026 150.683L472.086 150.493C463.778 136.339 472.429 125.963 483.713 116.173C483.22 114.634 483.205 112.981 483.67 111.433C484.135 109.885 485.057 108.514 486.316 107.501L486.316 107.493C486.188 106.931 485.852 106.437 485.376 106.112C484.971 105.819 484.48 105.668 483.981 105.685C483.481 105.701 483.001 105.883 482.616 106.203L480.826 107.652L480.426 107.973L480.376 108.022L478.976 109.152L478.466 109.563L453.396 129.862C444.234 137.254 438.315 147.926 436.896 159.612L434.026 182.982L431.956 199.802L457.446 212.362L469.526 200.473L486.046 184.203C494.62 175.801 499.603 164.402 499.946 152.402L501.016 117.033L501.036 116.252L501.066 115.312C501.067 115.162 501.057 115.011 501.036 114.862V114.862Z" fill="#CCCCCC"/>
<path d="M374.27 80.1885C377.031 80.1885 379.27 77.9499 379.27 75.1885C379.27 72.4271 377.031 70.1885 374.27 70.1885C371.508 70.1885 369.27 72.4271 369.27 75.1885C369.27 77.9499 371.508 80.1885 374.27 80.1885Z" fill="#00B0FF"/>
<path d="M552.211 135.884C554.972 135.884 557.211 133.645 557.211 130.884C557.211 128.122 554.972 125.884 552.211 125.884C549.45 125.884 547.211 128.122 547.211 130.884C547.211 133.645 549.45 135.884 552.211 135.884Z" fill="#00B0FF"/>
<path d="M470.787 158.273C472.996 158.273 474.787 156.483 474.787 154.273C474.787 152.064 472.996 150.273 470.787 150.273C468.578 150.273 466.787 152.064 466.787 154.273C466.787 156.483 468.578 158.273 470.787 158.273Z" fill="#3F3D56"/>
<path d="M808.386 174.562C807.936 174.062 807.486 173.582 807.026 173.102C795.716 161.212 780.936 154.162 767.136 154.162C764.576 154.162 762.126 154.279 759.786 154.512C750.096 155.462 742.346 158.382 736.536 163.272C727.956 170.492 723.656 181.956 723.636 197.662C723.636 198.532 723.586 200.152 723.506 202.302C722.996 214.832 721.136 245.362 719.466 249.882C716.756 257.242 714.406 263.602 717.906 268.412C719.946 271.222 723.956 273.262 730.216 274.582C731.366 274.832 732.586 275.052 733.886 275.232C740.605 276.122 747.379 276.524 754.156 276.432C755.046 276.432 755.936 276.432 756.866 276.412H756.876C760.086 276.392 763.516 276.302 767.156 276.162C775.666 275.832 786.336 275.162 795.916 272.952H795.926C797.176 272.672 798.406 272.352 799.606 272.012L799.826 271.952L799.926 271.752C801.64 268.265 802.616 264.463 802.796 260.582C804.628 263.054 805.978 265.85 806.776 268.822L806.926 269.392L807.466 269.142C811.694 267.323 815.36 264.41 818.086 260.702C820.694 256.836 822.258 252.361 822.626 247.712C823.996 235.092 818.806 186.182 808.386 174.562Z" fill="#2F2E41"/>
<path d="M811.754 580.659H751.824L741.774 530.969L738.514 580.659H682.844C682.815 543.832 671.559 502.816 688.416 468.988C689.292 467.228 700.897 464.847 688.934 463.829L689.624 461.479L690.714 457.719L691.404 455.359C691.404 455.359 694.1 453.105 692.283 452.341C690.466 451.577 693.209 449.162 693.209 449.162L702.924 415.799L703.834 412.659H773.204C777.196 416.409 780.878 420.476 784.214 424.819C785.344 426.259 786.524 427.819 787.734 429.499C788.574 430.689 789.444 431.939 790.314 433.249C798.044 444.756 803.821 457.461 807.414 470.849V470.859C808.024 473.149 808.564 475.492 809.034 477.889V477.899C809.454 480.029 809.824 482.189 810.114 484.399C810.334 486.009 810.524 487.639 810.664 489.289C811.498 498.43 811.205 507.639 809.794 516.709L811.754 580.659Z" fill="#2F2E41"/>
<path d="M744.035 249.47L777.051 247.77L792.386 272.001C792.386 272.001 821.24 276.825 819.24 310.825C817.24 344.825 784.134 374.66 784.134 374.66L809.549 448.366L807.091 455.388L807.406 459.332L810.759 463.508L811.104 467.827L808.134 474.66L812.174 481.203C783.09 488.463 763.464 481.074 753.049 459.422C741.111 429.626 721.005 426.786 696.466 438.577L700.134 405.66L704.664 399.584L702.134 391.66L705.938 384.038L707.922 359.827C707.922 359.827 686.218 327.219 711.134 302.66L721.134 285.66L732.323 272.009L744.035 249.47Z" fill="#00B0FF"/>
<path d="M760.448 242.628C779.769 242.628 795.432 226.965 795.432 207.643C795.432 188.322 779.769 172.659 760.448 172.659C741.127 172.659 725.464 188.322 725.464 207.643C725.464 226.965 741.127 242.628 760.448 242.628Z" fill="#FFB6B6"/>
<path d="M783.436 164.162H749.186C745.043 163.198 740.773 162.898 736.536 163.272C731.329 163.669 726.355 165.593 722.235 168.802C716.105 173.722 712.726 181.562 712.726 190.882C712.742 193.862 713.051 196.832 713.646 199.752L713.706 200.062L714.006 200.142C717.166 200.952 720.332 201.672 723.506 202.302C724.266 202.452 725.036 202.602 725.806 202.742C729.966 203.512 734.125 204.122 738.256 204.562L738.485 204.592L738.656 204.442C741.607 201.728 743.949 198.418 745.525 194.732C746.454 197.97 746.702 201.364 746.256 204.702L746.186 205.242L746.726 205.272C749.735 205.442 752.749 205.525 755.766 205.522C768.906 205.513 781.997 203.918 794.756 200.772C795.596 200.572 796.426 200.362 797.256 200.142L797.636 200.042V178.362C797.631 174.597 796.134 170.988 793.472 168.326C790.81 165.664 787.2 164.167 783.436 164.162V164.162Z" fill="#2F2E41"/>
<path d="M811.335 161.196C810.672 167.718 807.569 173.748 802.647 178.079C797.726 182.409 791.35 184.72 784.796 184.548C778.243 184.376 771.997 181.734 767.31 177.151C762.622 172.568 759.84 166.384 759.519 159.836C759.199 153.288 761.365 146.862 765.583 141.844C769.801 136.825 775.759 133.586 782.265 132.776C788.77 131.965 795.341 133.643 800.661 137.472C805.982 141.302 809.659 147 810.955 153.426C806.987 153.985 803.215 155.502 799.965 157.846C801.949 157.601 803.962 157.757 805.884 158.305C807.806 158.853 809.599 159.782 811.155 161.036C811.215 161.086 811.275 161.136 811.335 161.196Z" fill="#2F2E41"/>
<path d="M263.998 94.5221C261.847 94.5209 259.744 93.8839 257.953 92.691C238.761 91.1622 226.191 82.9469 220.426 67.858C219.173 67.0256 218.103 65.9459 217.282 64.6851C216.461 63.4243 215.906 62.0089 215.652 60.526C215.394 59.04 215.447 57.5167 215.808 56.0522C216.168 54.5877 216.828 53.2138 217.746 52.0172C219.506 49.7899 222.046 48.313 224.852 47.8847C227.658 47.4564 230.523 48.1086 232.867 49.7096L234.891 51.0495C234.897 48.9173 235.531 46.834 236.712 45.0592L236.856 44.8473C237.548 43.8081 238.555 43.0183 239.729 42.5938C240.903 42.1693 242.183 42.1325 243.379 42.4889C244.658 42.8427 245.792 43.5916 246.619 44.6287C247.447 45.6658 247.925 46.938 247.986 48.2633C248.017 48.7746 248.079 49.2835 248.175 49.7868C248.523 51.578 249.294 53.2603 250.422 54.6947C251.55 56.1291 253.003 57.2743 254.662 58.0354C256.32 58.7966 258.136 59.1519 259.959 59.072C261.782 58.9921 263.56 58.4792 265.146 57.5758C266.1 57.0313 267.177 56.7402 268.275 56.7302C269.374 56.7203 270.456 56.9919 271.42 57.5192C272.295 57.9897 273.03 58.6827 273.551 59.5282C274.072 60.3736 274.361 61.3417 274.389 62.3346C274.469 64.5437 273.879 66.7253 272.698 68.5938C271.517 70.4623 269.799 71.9306 267.77 72.8063L269.804 74.153C272.26 75.7405 274 78.2232 274.655 81.0734C275.309 83.9236 274.826 86.9167 273.309 89.4167C272.528 90.6535 271.507 91.721 270.306 92.5557C269.105 93.3905 267.748 93.9755 266.317 94.276C265.555 94.4393 264.778 94.5218 263.998 94.5221V94.5221Z" fill="#3F3D56"/>
<path d="M452.857 230.323C452.267 230.322 451.681 230.234 451.117 230.06C449.994 229.721 448.993 229.062 448.237 228.164C447.481 227.266 447.003 226.168 446.861 225.003L446.842 224.868C446.549 222.906 445.752 221.052 444.53 219.489C443.308 217.925 441.703 216.705 439.869 215.946C438.036 215.187 436.037 214.915 434.067 215.157C432.098 215.399 430.225 216.147 428.63 217.328C427.816 217.915 426.867 218.285 425.871 218.405C424.875 218.524 423.865 218.389 422.936 218.012C422.007 217.635 421.188 217.028 420.557 216.248C419.926 215.468 419.504 214.541 419.329 213.554C418.961 211.367 419.265 209.12 420.199 207.108C421.134 205.097 422.656 203.416 424.564 202.287L422.064 201.055C420.715 200.388 419.518 199.452 418.544 198.305C417.57 197.159 416.841 195.825 416.402 194.387C415.958 192.945 415.818 191.427 415.991 189.928C416.163 188.429 416.644 186.983 417.404 185.68C418.868 183.247 421.2 181.461 423.93 180.682C426.66 179.902 429.584 180.188 432.112 181.48C449.496 179.066 462.777 185.791 472.154 201.213C473.502 201.88 474.7 202.815 475.674 203.962C476.648 205.109 477.377 206.442 477.817 207.881C478.26 209.323 478.4 210.841 478.227 212.339C478.055 213.837 477.573 215.284 476.814 216.587C475.35 219.019 473.018 220.805 470.288 221.585C467.558 222.364 464.634 222.079 462.107 220.787L459.929 219.714C460.193 221.83 459.828 223.976 458.88 225.886C458.447 226.767 457.897 227.587 457.246 228.322C456.699 228.949 456.025 229.451 455.268 229.796C454.511 230.141 453.689 230.321 452.857 230.323Z" fill="#3F3D56"/>
<path d="M647.515 376.628C646.081 376.645 644.675 376.241 643.469 375.467C642.262 374.693 641.309 373.583 640.727 372.273L640.661 372.121C639.804 370.168 639.542 368.006 639.908 365.905L637.351 367.016C636.01 367.598 634.567 367.908 633.105 367.926C631.643 367.944 630.193 367.671 628.838 367.122C627.483 366.573 626.251 365.759 625.214 364.729C624.177 363.699 623.356 362.472 622.798 361.12C621.739 358.395 621.784 355.364 622.924 352.671C624.064 349.978 626.208 347.836 628.902 346.699C636.065 330.159 649.195 323.591 669.525 329.046C672.112 327.878 675.045 327.734 677.734 328.644C680.423 329.553 682.667 331.448 684.014 333.947V333.947C684.71 335.284 685.122 336.752 685.222 338.257C685.323 339.762 685.11 341.271 684.598 342.69C684.09 344.106 683.298 345.403 682.27 346.502C681.243 347.601 680.001 348.478 678.623 349.08L676.066 350.191C677.851 351.357 679.253 353.024 680.097 354.982C680.219 355.264 680.329 355.548 680.427 355.834C680.894 357.196 680.949 358.665 680.583 360.057C680.218 361.45 679.45 362.703 678.375 363.66C677.285 364.683 675.918 365.36 674.444 365.607C672.971 365.854 671.457 365.661 670.093 365.05C668.655 364.414 667.101 364.082 665.529 364.076H665.472C663.357 364.126 661.295 364.747 659.505 365.873C657.714 366.999 656.261 368.588 655.301 370.473C655.074 370.892 654.872 371.324 654.697 371.767C654.151 373.182 653.195 374.401 651.95 375.267C650.706 376.133 649.23 376.606 647.714 376.626C647.647 376.627 647.581 376.628 647.515 376.628Z" fill="#3F3D56"/>
<path d="M797.805 295.878C795.412 295.185 792.889 295.073 790.444 295.55C787.999 296.028 785.703 297.082 783.747 298.624C781.79 300.167 780.23 302.154 779.196 304.42C778.161 306.686 777.682 309.166 777.798 311.655L739.16 389.84L683.723 377.392C682.576 374.371 680.503 371.79 677.799 370.02C675.095 368.25 671.9 367.382 668.672 367.54C665.445 367.698 662.35 368.875 659.832 370.9C657.314 372.926 655.503 375.697 654.657 378.816C653.811 381.935 653.975 385.242 655.125 388.262C656.275 391.282 658.352 393.86 661.058 395.627C663.763 397.394 666.959 398.258 670.187 398.097C673.414 397.935 676.508 396.755 679.023 394.727C692.211 402.321 751.985 435.079 764.67 412.622C775.333 393.745 809.718 331.207 809.107 310.473C809.011 307.157 807.865 303.957 805.834 301.334C803.803 298.712 800.992 296.801 797.805 295.878V295.878Z" fill="#FFB6B6"/>
<path d="M490.881 118.575C493.971 118.575 496.476 116.071 496.476 112.981C496.476 109.891 493.971 107.386 490.881 107.386C487.791 107.386 485.286 109.891 485.286 112.981C485.286 116.071 487.791 118.575 490.881 118.575Z" fill="#00B0FF"/>
<path d="M138.858 553.364C139.341 552.598 139.951 551.92 140.663 551.359C144.297 547.924 145.986 542.884 146.884 537.943C147.782 533.002 148.04 527.962 149.479 523.129C150.262 520.651 151.241 518.24 152.407 515.918C153.239 514.138 154.287 510.653 155.809 509.405C156.108 509.147 156.469 508.972 156.857 508.898C157.576 507.37 158.601 506.005 159.868 504.889C162.247 502.734 165.15 501.021 166.738 498.234C167.175 497.268 167.713 496.351 168.344 495.498C169.417 494.317 171.113 493.834 172.103 492.587C173.392 490.973 173.101 488.661 172.935 486.606C172.769 484.552 172.935 482.09 174.715 481.009C175.78 480.352 177.152 480.418 178.258 479.836C179.922 479.004 180.579 476.908 180.546 475.037C180.512 473.165 179.93 471.344 179.78 469.472C179.315 463.517 183.241 457.594 181.727 451.822C181.153 449.634 179.839 447.738 178.865 445.7C178.526 445.022 178.248 444.315 178.034 443.588C175.438 444.616 172.711 445.274 169.932 445.542C174.515 435.262 173.351 423.317 175.489 412.272L175.214 411.897C173.055 409.049 171.829 405.604 171.704 402.033C171.704 397.924 173.625 394.081 174.49 390.055C175.231 386.637 175.197 383.06 176.154 379.7C176.818 377.611 177.698 375.599 178.782 373.694C179.819 371.77 180.909 369.877 182.051 368.013C183.116 364.487 184.183 360.96 185.253 357.433C186.751 352.484 188.289 347.452 191.201 343.177C192.265 341.613 192.59 338.436 194.228 337.488C195.559 336.799 197.068 336.535 198.553 336.731C200.866 335.433 202.895 333.562 203.186 331C203.215 330.44 203.159 329.879 203.02 329.336H202.737C199.077 329.004 197.222 325.776 195.318 322.948C192.24 318.374 193.413 312.185 195.318 306.978C195.79 305.335 196.645 303.827 197.813 302.578C200.483 300.083 204.708 300.632 208.152 299.426C209.308 299.027 210.389 298.42 211.57 298.137C213.858 297.604 216.253 298.353 218.349 299.409C220.445 300.466 222.4 301.83 224.596 302.662C226.792 303.493 229.503 304.15 230.044 306.405C230.195 307.164 230.132 307.95 229.861 308.675C229.356 310.122 228.467 311.404 227.291 312.385C228.226 314.313 228.731 316.42 228.773 318.562C228.815 320.704 228.391 322.83 227.532 324.792C226.672 326.755 225.397 328.508 223.795 329.93C222.192 331.352 220.3 332.409 218.25 333.029C217.617 334.044 217.027 335.076 216.486 336.132C215.521 337.995 214.706 340.191 215.039 342.187C215.641 342.826 216.197 343.507 216.702 344.225C219.09 347.552 220.445 351.453 221.693 355.346C223.369 360.316 224.711 365.393 225.71 370.542C227.74 374.859 230.219 378.984 231.691 383.517C234.327 383.521 236.951 383.168 239.493 382.469L246.513 380.881C248.958 380.324 251.503 379.725 253.417 378.111C254.431 377.279 255.221 376.173 256.253 375.35C257.284 374.526 259.355 373.561 260.487 374.243C260.693 374.369 260.886 374.517 261.06 374.684C262.092 372.596 263.073 370.525 264.271 368.504C265.993 365.676 268.555 363.089 271.799 362.549C273.781 362.23 275.809 362.702 277.446 363.863C279.343 365.21 280.532 368.022 279.11 369.918C278.754 370.34 278.368 370.735 277.954 371.099C276.991 372.208 276.13 373.403 275.383 374.667C272.702 378.431 268.692 381.035 264.163 381.954L264.454 382.786C265.045 384.516 266.301 386.603 265.985 388.4L234.76 399.088C232.757 399.901 230.631 400.371 228.472 400.477C227.63 400.47 226.791 400.358 225.977 400.144V401.741V401.808C225.893 412.779 227.64 423.675 227.965 434.638C228.023 436.642 227.965 438.797 226.7 440.36C225.286 442.074 222.774 442.415 220.587 442.024C220.06 441.935 219.544 441.819 219.04 441.674C218.3 444.434 217.766 447.245 217.443 450.084L215.38 464.939C215.114 466.46 215.006 468.004 215.056 469.547C215.297 473.032 217.135 476.151 218.466 479.37C219.797 482.589 220.587 486.44 218.84 489.451C218.291 490.383 217.534 491.173 217.043 492.138C216.42 493.631 216.136 495.245 216.212 496.862C216.084 501.343 215.962 505.828 215.846 510.32C216.209 510.26 216.581 510.334 216.894 510.528C218.624 511.875 218.432 518.288 218.557 520.276C218.69 523.603 218.557 526.997 218.74 530.357C218.957 534.886 219.685 539.375 220.911 543.74C221.211 545.159 221.866 546.479 222.816 547.575C223.789 548.421 224.949 549.022 226.201 549.33C230.345 550.628 234.678 551.218 239.019 551.076C240.774 551.018 242.604 550.852 244.234 551.517C245.864 552.183 247.178 554.013 246.588 555.676C246.08 557.074 244.542 557.739 243.153 558.263C239.979 559.38 236.917 560.789 234.003 562.472C232.882 563.236 231.699 563.906 230.468 564.476C229.288 564.9 228.067 565.201 226.825 565.375L212.078 567.92C209.059 568.435 205.424 568.751 203.502 566.256C202.463 564.909 202.313 563.079 202.363 561.365C202.446 558.038 203.111 554.653 202.679 551.326C202.35 549.359 201.832 547.429 201.132 545.562C199.662 541.198 198.187 536.837 196.707 532.478C195.226 528.103 193.729 523.686 193.155 519.095C192.947 517.432 192.964 515.535 194.236 514.495C194.558 514.231 194.933 514.039 195.334 513.93C195.384 509.921 195.908 505.903 195.684 501.894C195.625 500.896 195.526 499.898 195.443 498.892C194.672 499.624 193.983 500.439 193.388 501.32C191.966 503.549 191.442 506.494 189.271 507.974C187.424 509.239 184.688 509.172 183.39 511.002C182.973 511.705 182.66 512.464 182.459 513.256C181.706 515.217 180.575 517.012 179.132 518.538C178.636 520.364 177.947 522.131 177.077 523.811C175.852 526.401 174.632 528.982 173.417 531.555C172.169 534.332 170.781 537.044 169.259 539.681C168.096 541.341 167.159 543.148 166.472 545.055C165.299 549.163 167.212 553.672 170.24 556.699C173.268 559.727 177.26 561.465 181.194 563.087C181.609 563.227 181.989 563.454 182.309 563.753C182.65 564.156 182.83 564.672 182.816 565.2C182.816 567.121 181.236 568.768 179.423 569.359C177.569 569.857 175.627 569.928 173.742 569.567C163.112 568.277 152.515 565.682 143.116 560.517C141.71 559.851 140.465 558.889 139.465 557.697C138.982 557.097 138.67 556.377 138.563 555.614C138.456 554.851 138.558 554.074 138.858 553.364Z" fill="url(#paint0_linear_322_327)"/>
<path d="M403.067 253.363C409.647 259.934 410.437 262.829 414.388 264.135C418.339 265.44 432.553 272.802 428.087 280.961L416.076 288.896L415.727 289.129L413.889 294.652L432.054 326.991C432.054 326.991 461.998 313.3 464.934 333.554C467.87 353.807 466.007 359.338 466.797 370.151C467.587 380.964 466.539 384.092 469.176 384.092C471.813 384.092 472.852 376.988 472.852 376.988C472.852 376.988 473.019 376.664 473.31 376.057C477.228 367.914 503.819 308.135 461.224 267.046C461.224 267.046 441.495 265.748 436.746 243.124C433.468 227.487 422.007 228.835 414.388 232.02C411.911 232.991 409.604 234.347 407.551 236.038C405.703 237.787 404.059 239.74 402.652 241.86C400.481 245.287 399.3 249.587 403.067 253.363Z" fill="#D0D2D5"/>
<path d="M62.8264 438.182C64.8642 442.257 75.3029 457.545 79.8693 464.224L82.0069 467.368C82.0069 467.368 82.8387 472.891 96.4713 466.046C110.104 459.2 430.408 324.047 430.408 324.047L432.579 317.526L416.776 293.862L65.7126 429.498C65.7126 429.498 60.1897 432.917 62.8264 438.182Z" fill="#454B69"/>
<path d="M273.071 375.94C276.324 375.408 279.933 375.666 282.462 377.778C283.99 379.072 284.957 380.909 285.157 382.902C285.373 385.206 284.034 387.942 281.722 388.117C281.165 388.123 280.609 388.087 280.058 388.009C278.597 388.003 277.139 388.125 275.7 388.375C272.867 388.641 270.012 388.225 267.373 387.159C264.735 386.094 262.39 384.412 260.537 382.253C258.549 379.758 261.169 378.677 263.514 378.178C266.725 377.496 269.861 376.456 273.071 375.94Z" fill="#FBBEBE"/>
<path d="M217.443 451.057L215.38 465.712C215.117 467.225 215.011 468.761 215.064 470.295C215.305 473.747 217.143 476.841 218.466 480.035C219.788 483.229 220.595 487.055 218.84 490.016C218.299 490.94 217.542 491.73 217.052 492.686C216.428 494.166 216.144 495.766 216.22 497.369L215.654 518.163C209.234 518.601 202.789 518.565 196.374 518.055C196.123 518.067 195.876 517.991 195.675 517.839C195.506 517.624 195.42 517.355 195.434 517.082C195.151 512.216 196 507.342 195.725 502.476C195.625 500.696 195.376 498.925 195.343 497.136C195.243 489.892 198.819 482.797 197.738 475.635C197.399 473.828 196.954 472.042 196.407 470.287C192.989 457.81 193.712 444.702 194.469 431.818C194.456 431.61 194.515 431.405 194.636 431.236C194.758 431.113 194.915 431.029 195.085 430.994C198.724 429.903 202.572 429.703 206.304 430.412C210.036 431.122 213.543 432.719 216.528 435.07C217.434 435.802 219.722 436.509 220.32 437.382C221.152 438.597 220.063 439.811 219.58 441.1C218.512 444.333 217.795 447.671 217.443 451.057V451.057Z" fill="#313040"/>
<path d="M178.874 446.64C179.848 448.662 181.153 450.541 181.736 452.712C183.249 458.443 179.332 464.357 179.798 470.229C179.947 472.084 180.521 473.889 180.563 475.744C180.604 477.599 179.922 479.661 178.276 480.518C177.169 481.084 175.78 481.025 174.741 481.674C172.985 482.747 172.786 485.184 172.961 487.23C173.135 489.277 173.426 491.564 172.129 493.161C171.139 494.4 169.442 494.883 168.378 496.055C167.744 496.897 167.206 497.807 166.772 498.767C165.184 501.545 162.281 503.242 159.902 505.421C157.523 507.6 155.51 510.794 156.575 513.814C157.357 516.026 159.553 517.39 161.665 518.43C165.52 520.335 169.588 521.773 173.784 522.714C174.234 522.85 174.711 522.875 175.173 522.788C175.641 522.617 176.059 522.331 176.387 521.957C178.841 519.553 181.378 517.033 182.509 513.797C182.71 513.013 183.024 512.262 183.441 511.568C184.738 509.746 187.475 509.813 189.321 508.557C191.484 507.085 192.008 504.165 193.422 501.961C194.836 499.757 196.907 498.443 198.413 496.505C200.958 493.277 201.582 488.969 203.403 485.284C204.177 483.72 205.166 482.256 205.782 480.626C206.403 478.672 206.786 476.65 206.921 474.604C208.094 464.889 211.08 455.108 209.201 445.493C208.785 443.38 208.144 441.334 207.878 439.154C207.421 435.387 208.144 431.527 207.587 427.768C207.573 427.296 207.453 426.833 207.236 426.414C207.018 425.995 206.709 425.63 206.331 425.347C205.881 425.145 205.393 425.046 204.9 425.056C199.969 424.792 195.026 424.904 190.112 425.389C187.616 425.63 184.822 426.137 183.324 428.175C182.052 429.922 182.118 432.259 181.711 434.38C181.203 436.992 179.881 438.414 178.492 440.46C177.103 442.506 177.851 444.528 178.874 446.64Z" fill="#3F3D56"/>
<path d="M198.063 514.229C196.749 514.229 195.293 514.146 194.278 514.978C193.014 516.017 192.997 517.922 193.197 519.544C193.779 524.102 195.268 528.485 196.757 532.852L201.182 545.836C201.882 547.689 202.4 549.605 202.729 551.559C203.162 554.886 202.496 558.213 202.413 561.54C202.413 563.203 202.521 565.05 203.561 566.389C205.441 568.809 209.109 568.527 212.128 568.052L226.859 565.557C228.101 565.392 229.323 565.093 230.502 564.667C231.731 564.1 232.913 563.435 234.037 562.679C236.952 561.014 240.014 559.621 243.186 558.52C244.567 558.005 246.114 557.348 246.613 555.959C247.203 554.295 245.889 552.465 244.259 551.8C242.629 551.134 240.807 551.301 239.044 551.351C234.708 551.489 230.379 550.904 226.235 549.621C224.986 549.314 223.829 548.716 222.858 547.874C221.871 546.765 221.199 545.412 220.911 543.956C219.656 539.621 218.908 535.155 218.682 530.648C218.508 527.321 218.624 523.994 218.491 520.667C218.408 518.696 218.599 512.349 216.869 510.993C215.547 509.979 210.107 512.782 208.318 513.189C204.956 513.96 201.511 514.309 198.063 514.229V514.229Z" fill="#2F2E41"/>
<path d="M149.539 523.479C148.1 528.245 147.875 533.285 146.944 538.184C146.012 543.083 144.365 548.082 140.73 551.492C140.023 552.054 139.413 552.728 138.925 553.489C138.618 554.201 138.514 554.984 138.624 555.752C138.734 556.519 139.054 557.242 139.549 557.839C140.553 559.022 141.798 559.977 143.201 560.642C152.591 565.765 163.163 568.352 173.818 569.633C175.701 569.986 177.638 569.915 179.49 569.425C181.304 568.81 182.909 567.179 182.876 565.266C182.893 564.742 182.715 564.229 182.377 563.827C182.053 563.532 181.67 563.308 181.254 563.17C177.328 561.557 173.344 559.802 170.308 556.824C167.272 553.846 165.367 549.338 166.54 545.296C167.234 543.402 168.177 541.61 169.343 539.964C170.864 537.349 172.252 534.659 173.502 531.904L177.162 524.227C178.235 521.981 179.316 519.669 179.499 517.19C174.901 517.396 170.31 516.66 166.008 515.028C163.999 514.209 162.128 513.087 160.46 511.701C159.046 510.52 157.756 508.315 155.852 509.854C154.321 511.085 153.356 514.554 152.458 516.309C151.291 518.615 150.315 521.013 149.539 523.479Z" fill="#2F2E41"/>
<path opacity="0.1" d="M203.17 332.846C202.804 336.04 199.71 338.144 196.757 339.409L215.447 345.372C214.241 343.06 215.214 340.232 216.412 337.887C217.387 336.029 218.5 334.247 219.739 332.555C219.922 332.297 220.13 331.973 219.997 331.673C219.878 331.478 219.692 331.333 219.473 331.266C215.63 329.552 211.671 327.781 207.47 327.157C206.256 326.982 203.96 326.5 203.054 327.731C202.147 328.962 203.345 331.374 203.17 332.846Z" fill="black"/>
<path d="M226.734 441.383C225.312 443.089 222.808 443.421 220.621 443.047C215.505 442.215 211.322 438.447 206.314 437.092C200.176 435.428 193.68 437.566 187.882 440.186C182.085 442.806 176.321 446.008 169.983 446.457C175.714 433.681 172.437 418.31 177.918 405.426C179.257 402.274 181.128 399.238 181.428 395.828C181.802 391.594 179.69 387.51 179.365 383.301C179.066 379.55 180.197 375.815 181.278 372.239C182.615 367.847 183.951 363.455 185.287 359.064C186.784 354.148 188.323 349.149 191.226 344.924C192.299 343.368 192.623 340.216 194.254 339.276C197.814 337.222 203.212 339.808 207.071 339.95C210.931 340.091 214.449 342.836 216.703 345.938C219.09 349.216 220.446 353.117 221.694 356.976C223.68 362.723 225.164 368.631 226.127 374.634C226.252 375.533 226.36 376.431 226.443 377.338C227.275 385.88 226.06 394.472 225.994 403.056V403.114C225.911 414.002 227.657 424.823 227.982 435.703C228.015 437.69 227.965 439.861 226.734 441.383Z" fill="#2F2E41"/>
<path d="M204.193 347.827C202.704 349.806 202.771 352.51 202.979 354.972C203.763 364.131 205.72 373.152 208.801 381.813C209.874 385.079 211.352 388.197 213.201 391.095C214.665 393.233 216.38 395.187 218.308 396.917C221.136 399.496 224.58 401.8 228.414 401.833C230.572 401.732 232.698 401.268 234.702 400.461L265.935 389.831C266.251 388.051 264.995 385.971 264.405 384.258L262.741 379.326C262.267 377.962 261.718 376.489 260.479 375.749C259.239 375.009 257.276 376.024 256.245 376.847C255.214 377.67 254.432 378.752 253.417 379.592C251.496 381.189 248.959 381.788 246.513 382.337L239.502 383.909C236.96 384.605 234.335 384.955 231.7 384.948C229.745 378.976 226.027 373.72 223.923 367.797C223.274 365.984 222.783 364.113 222.109 362.299C220.612 358.207 218.25 354.489 215.913 350.804C214.74 348.958 213.467 347.02 211.496 346.055C210.259 345.477 208.861 345.338 207.534 345.66C206.207 345.982 205.028 346.746 204.193 347.827V347.827Z" fill="#2F2E41"/>
<path d="M209.359 324.088C209.47 323.124 209.769 322.192 210.24 321.343C210.485 320.919 210.859 320.583 211.308 320.386C211.757 320.188 212.257 320.139 212.736 320.245C214.2 320.703 214.69 322.965 216.221 323.04C217.252 323.09 217.992 322.042 218.317 321.061C218.641 320.079 218.816 318.956 219.589 318.266C220.128 317.863 220.746 317.58 221.403 317.434C224.954 316.311 228.622 314.24 229.804 310.705C230.081 309.988 230.148 309.205 229.995 308.451C229.454 306.214 226.668 305.54 224.547 304.733C222.426 303.926 220.388 302.546 218.309 301.498C216.229 300.449 213.817 299.709 211.53 300.242C210.369 300.607 209.228 301.031 208.111 301.514C204.668 302.712 200.451 302.155 197.781 304.642C196.614 305.875 195.759 307.369 195.285 309C193.422 314.174 192.241 320.312 195.327 324.853C197.232 327.657 199.078 330.859 202.738 331.2C206.997 331.558 208.685 327.698 209.359 324.088Z" fill="#2F2E41"/>
<g opacity="0.1">
<path opacity="0.1" d="M215.863 319.298C216.188 318.316 216.362 317.193 217.128 316.503C217.666 316.1 218.284 315.817 218.941 315.671C222.501 314.548 226.16 312.477 227.35 308.942C227.621 308.223 227.684 307.442 227.533 306.688C227.451 306.333 227.302 305.997 227.092 305.698C228.448 306.289 229.629 307.071 229.962 308.451C230.115 309.206 230.048 309.988 229.77 310.705C228.589 314.24 224.921 316.312 221.369 317.434C220.713 317.58 220.095 317.863 219.556 318.266C218.783 318.957 218.616 320.071 218.284 321.061C217.951 322.051 217.219 323.09 216.188 323.041C215.156 322.991 214.657 322.051 214 321.261C214.907 321.144 215.564 320.213 215.863 319.298Z" fill="black"/>
<path opacity="0.1" d="M200.293 329.412C204.568 329.803 206.257 325.91 206.947 322.325C207.038 321.364 207.321 320.431 207.779 319.58C208.025 319.157 208.399 318.822 208.847 318.625C209.296 318.427 209.796 318.377 210.274 318.482C211.033 318.85 211.671 319.428 212.112 320.146C211.731 320.183 211.362 320.307 211.036 320.509C210.71 320.711 210.435 320.985 210.233 321.31C209.761 322.159 209.462 323.091 209.351 324.055C208.677 327.64 206.989 331.541 202.697 331.142C201 330.955 199.435 330.142 198.305 328.863C198.932 329.155 199.604 329.341 200.293 329.412V329.412Z" fill="black"/>
</g>
</g>
<defs>
<linearGradient id="paint0_linear_322_327" x1="204.665" y1="570.936" x2="215.674" y2="298.015" gradientUnits="userSpaceOnUse">
<stop stop-color="#808080" stop-opacity="0.25"/>
<stop offset="0.54" stop-color="#808080" stop-opacity="0.12"/>
<stop offset="1" stop-color="#808080" stop-opacity="0.1"/>
</linearGradient>
<clipPath id="clip0_322_327">
<rect width="822.842" height="580.81" fill="white"/>
</clipPath>
</defs>
</svg>
